<svg xmlns="http://www.w3.org/2000/svg" xmlns:xlink="http://www.w3.org/1999/xlink"  version="1.1" x="0px" y="0px" fill="white" width="60px" height="60px" viewBox="-2784 2785.3 100 125" style="enable-background:new -2784 2785.3 100 100;" xml:space="preserve">
    <path d="M-2734,2802c-18.4,0-33.3,14.9-33.3,33.3c0,18.4,14.9,33.3,33.3,33.3s33.3-14.9,33.3-33.3  C-2700.7,2816.9-2715.6,2802-2734,2802z M-2733.8,2814c1.8,0,3,1.2,3,1.2l12.5,10.4c1.1,0.9,1.7,2.3,1.7,3.6c0,1.1-0.4,2.1-1.1,3  c-1.7,2-4.6,2.3-6.6,0.6l-4.8-4v24.3c0,1.3-0.5,2.5-1.4,3.3c-0.9,0.9-2,1.4-3.3,1.4c-2.6,0-4.7-2.1-4.7-4.7v-24.3l-4.8,4  c-2,1.6-5,1.4-6.6-0.6c-0.7-0.9-1.1-1.9-1.1-3c0-1.3,0.6-2.7,1.7-3.6l12.5-10.4C-2736.8,2815.2-2735.6,2814-2733.8,2814z"/>
</svg>